<svg width="24" height="22" viewBox="0 0 24 22" fill="none" xmlns="http://www.w3.org/2000/svg">
<path d="M12 22C11.8254 22.0011 11.6523 21.9668 11.4908 21.8992C11.3293 21.8316 11.1827 21.7319 11.0594 21.6061L2.09654 12.4768C1.291 11.6549 0.689454 10.6494 0.341737 9.54371C-0.00597937 8.43801 -0.0898609 7.26391 0.097041 6.11865C0.283943 4.97339 0.736249 3.88994 1.41649 2.95803C2.09674 2.02613 2.98534 1.2726 4.0087 0.759854C5.29955 0.103493 6.75658 -0.135849 8.18476 0.0738696C9.61293 0.283588 10.9441 0.932358 12 1.93333C13.0559 0.932358 14.3871 0.283588 15.8152 0.0738696C17.2434 -0.135849 18.7005 0.103493 19.9913 0.759854C21.0147 1.2726 21.9033 2.02613 22.5835 2.95803C23.2638 3.88994 23.7161 4.97339 23.903 6.11865C24.0899 7.26391 24.006 8.43801 23.6583 9.54371C23.3105 10.6494 22.709 11.6549 21.9035 12.4768L12.9326 21.6061C12.8102 21.7309 12.6649 21.83 12.5048 21.8976C12.3448 21.9652 12.1733 22 12 22ZM7.10202 1.37531C6.24095 1.36964 5.39114 1.57462 4.62414 1.97299C3.78076 2.39877 3.04946 3.02338 2.49109 3.79485C1.93272 4.56632 1.56342 5.46234 1.41392 6.40838C1.27448 7.32944 1.34958 8.27096 1.63316 9.15707C1.91675 10.0432 2.40089 10.8491 3.04658 11.5098L12.0161 20.6391L20.9534 11.5098C21.5991 10.8491 22.0832 10.0432 22.3668 9.15707C22.6504 8.27096 22.7255 7.32944 22.5861 6.40838C22.4366 5.46234 22.0673 4.56632 21.5089 3.79485C20.9505 3.02338 20.2192 2.39877 19.3759 1.97299C18.2824 1.43573 17.0515 1.25923 15.8547 1.46812C14.658 1.67701 13.5552 2.26087 12.7001 3.13825C12.5132 3.32486 12.2618 3.4294 12 3.4294C11.7382 3.4294 11.4868 3.32486 11.2999 3.13825C10.1812 2.01413 8.67406 1.38119 7.10202 1.37531Z" fill="#FB0000"/>
</svg>
